<?xml version="1.0" encoding="utf-8"?>
<!-- Generator: Adobe Illustrator 21.1.0, SVG Export Plug-In . SVG Version: 6.00 Build 0)  -->
<svg version="1.1" id="Layer_1" xmlns="http://www.w3.org/2000/svg" xmlns:xlink="http://www.w3.org/1999/xlink" x="0px" y="0px"
	 viewBox="0 0 34 34" style="enable-background:new 0 0 34 34;" xml:space="preserve">
<style type="text/css">
	.st0{fill:#2EABE3;}
</style>
<g>
	<g>
		<g>
			<g>
				<g>
					<g>
						<g>
							<g>
								<path class="st0" d="M14.6,25.2l-7.3-7.3l0,0l3.9-3.9l3.5,3.8l9.4-7.9l2.8,2.8L14.6,25.2z"/>
								<path class="st0" d="M29,5C22.3-1.7,11.6-1.7,5,5s-6.7,17.4,0,24s17.4,6.7,24,0l0,0C35.7,22.4,35.7,11.7,29,5
									C29.1,5.1,29,5,29,5z M27.1,27.1c-5.7,5.5-14.8,5.4-20.3-0.3c-5.4-5.6-5.4-14.5,0.1-20c5.7-5.5,14.8-5.4,20.3,0.3
									C32.6,12.7,32.6,21.6,27.1,27.1z"/>
								<polygon class="st0" points="14.7,17.8 11.1,14 7.3,17.9 14.6,25.2 26.9,12.9 24.1,10 								"/>
								<path class="st0" d="M7.3,17.9L7.3,17.9L7.3,17.9z"/>
							</g>
						</g>
					</g>
				</g>
			</g>
		</g>
	</g>
</g>
</svg>
