<?xml version="1.0" encoding="utf-8"?>
<!-- Generator: Adobe Illustrator 21.1.0, SVG Export Plug-In . SVG Version: 6.00 Build 0)  -->
<svg version="1.1" id="Layer_1" xmlns="http://www.w3.org/2000/svg" xmlns:xlink="http://www.w3.org/1999/xlink" x="0px" y="0px"
	 viewBox="0 0 35 35" style="enable-background:new 0 0 35 35;" xml:space="preserve">
<style type="text/css">
	.st0{fill:#2EABE2;}
</style>
<path class="st0" d="M30.1,16.8l-12.6,6.8L0,14.1l17.5-7.9L35,14.1l-2.3,1.2v5.8h-1.2v-0.1V16c-3.2-0.4-12.9-1.8-14.1-2
	C17.5,14.5,26.1,16.2,30.1,16.8z M28,22.9l-0.5-3.4l-10,5.4l-10-5.4l-0.5,3.3C7,23,7,23.1,6.9,23.3c-0.1,0.7,0.2,1.4,0.6,2.1
	c0.5,0.7,1.2,1.2,2.2,1.7c1,0.5,2.1,0.9,3.4,1.2c1.3,0.3,2.8,0.5,4.3,0.5c1.5,0,3-0.2,4.3-0.5c1.3-0.3,2.5-0.7,3.4-1.2
	c0.9-0.5,1.7-1.1,2.2-1.7c0.5-0.6,0.7-1.3,0.6-2.1C28,23.2,28,23,28,22.9z M32.2,24.6c-0.4,0-0.8-0.1-1.1-0.2l-0.7,2.3
	c0,0,0.6,0.6,1.8,0.6c1.2,0,1.8-0.6,1.8-0.6l-0.7-2.3C32.9,24.5,32.6,24.6,32.2,24.6z M30.9,22.9c0,0.6,0.6,1,1.2,1
	c0.7,0,1.2-0.4,1.2-1c0-0.6-0.6-1-1.2-1C31.5,21.9,30.9,22.3,30.9,22.9z"/>
</svg>
